<svg width="90" height="29" viewBox="0 0 90 29" fill="none" xmlns="http://www.w3.org/2000/svg">
<g clip-path="url(#clip0_25_2210)">
<path d="M25.7997 19.9941C25.6585 19.6533 25.5262 19.2951 25.385 18.9892L24.7321 17.53L24.7056 17.5038C22.7644 13.3096 20.6909 9.04555 18.4938 4.85138L18.4056 4.67662C18.185 4.26594 17.9644 3.81157 17.735 3.39216C17.4527 2.8941 17.1791 2.36109 16.7291 1.85429C16.2905 1.32402 15.7385 0.896787 15.1128 0.603427C14.4872 0.310068 13.8037 0.157898 13.1115 0.157898C12.4193 0.157898 11.7357 0.310068 11.1101 0.603427C10.4845 0.896787 9.93248 1.32402 9.49384 1.85429C9.07913 2.36109 8.77031 2.8941 8.48795 3.39216C8.26737 3.84652 8.04678 4.29216 7.81737 4.70284L7.72913 4.87759C5.56737 9.07177 3.45854 13.3358 1.51737 17.53L1.46443 17.5824C1.27031 18.0368 1.0409 18.5087 0.820308 19.0155C0.679131 19.3213 0.537955 19.6533 0.396778 20.0203C0.0156308 20.9813 -0.106082 22.024 0.0436364 23.0458C0.193354 24.0675 0.609335 25.033 1.25058 25.8471C1.89183 26.6611 2.73621 27.2957 3.70051 27.6882C4.6648 28.0807 5.71573 28.2176 6.74972 28.0854C7.74102 27.9561 8.69555 27.6292 9.5556 27.1242C10.7027 26.4863 11.8056 25.5601 13.0409 24.2232C14.2762 25.5601 15.4056 26.4863 16.5262 27.1329C17.6038 27.7593 18.8242 28.105 20.0732 28.1378C21.5197 28.1437 22.9196 27.6312 24.0143 26.6949C25.109 25.7586 25.8246 24.4617 26.0291 23.0436C26.2655 22.0246 26.1855 20.9586 25.7997 19.9854V19.9941ZM13.1291 21.4446C11.6115 19.5223 10.6232 17.7572 10.288 16.2456C10.149 15.6854 10.1191 15.1042 10.1997 14.5329C10.2615 14.0873 10.4291 13.6941 10.6585 13.3621C11.188 12.6019 12.1144 12.13 13.1291 12.13C13.611 12.1154 14.089 12.2196 14.5202 12.4331C14.9514 12.6466 15.3224 12.9628 15.5997 13.3533C15.8291 13.7028 15.9968 14.0873 16.0497 14.5329C16.138 15.0397 16.1027 15.6252 15.9615 16.2456C15.6262 17.731 14.638 19.5135 13.1291 21.4446ZM24.3703 22.7378C24.2701 23.4577 23.9811 24.1391 23.5321 24.714C23.0831 25.2889 22.4899 25.7373 21.8115 26.0145C21.1409 26.2941 20.3997 26.3727 19.6762 26.2941C18.9703 26.2067 18.2644 25.9795 17.5409 25.5601C16.3396 24.8248 15.2594 23.9113 14.338 22.8514C16.1909 20.5795 17.3115 18.5087 17.735 16.665C17.938 15.7912 17.9644 15.0048 17.8762 14.2795C17.766 13.5921 17.5072 12.9364 17.1174 12.3572C16.6723 11.7292 16.0783 11.219 15.3874 10.8717C14.6966 10.5243 13.9302 10.3503 13.1556 10.365C11.5232 10.365 10.0674 11.1164 9.18501 12.3485C8.78781 12.9262 8.53111 13.5871 8.43501 14.2795C8.32031 15.0135 8.34678 15.8261 8.57619 16.665C8.99972 18.5087 10.1468 20.6057 11.9732 22.8689C11.0675 23.949 9.98475 24.8706 8.77031 25.5951C8.03795 26.0145 7.3409 26.2329 6.63501 26.3203C5.53726 26.4596 4.42838 26.1641 3.54939 25.4982C2.6704 24.8322 2.09235 23.8497 1.9409 22.764C1.85266 22.065 1.91443 21.3659 2.19678 20.5795C2.28501 20.2999 2.41737 20.0203 2.55854 19.6883C2.75266 19.2339 2.98207 18.7621 3.20266 18.2902L3.23795 18.229C5.14384 14.0611 7.22619 9.80575 9.38795 5.63779L9.47619 5.46303C9.69678 5.04361 9.91737 4.59798 10.1468 4.17856C10.3762 3.73293 10.6232 3.30478 10.9409 2.95526C11.2158 2.63023 11.5594 2.36884 11.9474 2.18949C12.3354 2.01014 12.7583 1.91719 13.1865 1.91719C13.6146 1.91719 14.0376 2.01014 14.4256 2.18949C14.8136 2.36884 15.1571 2.63023 15.4321 2.95526C15.7409 3.30478 15.9968 3.73293 16.2262 4.17856C16.4468 4.59798 16.6674 5.05235 16.8968 5.46303L16.985 5.63779C19.138 9.80575 21.2203 14.0611 23.1615 18.229L23.188 18.2553C23.4174 18.7096 23.6115 19.2164 23.8321 19.6533C23.9732 19.9941 24.1144 20.265 24.2027 20.5533C24.3703 21.3397 24.4585 22.0388 24.3703 22.7378ZM36.6527 21.2524C35.9878 21.262 35.3292 21.1232 34.7259 20.8464C34.1225 20.5696 33.5898 20.1618 33.1674 19.6533C32.218 18.5698 31.7142 17.1727 31.7556 15.7388C31.7411 14.2736 32.2612 12.8525 33.2203 11.7368C33.664 11.2218 34.2162 10.8094 34.8382 10.5286C35.4602 10.2478 36.1368 10.1055 36.8203 10.1116C37.4635 10.0941 38.1006 10.239 38.6717 10.5325C39.2428 10.8259 39.7291 11.2584 40.085 11.7892L40.1732 10.4174H42.7497V20.9727H40.1644L40.0762 19.4349C39.7093 20.0017 39.2021 20.4662 38.603 20.7843C38.0038 21.1024 37.3324 21.2635 36.6527 21.2524ZM37.3232 18.7358C37.835 18.7358 38.285 18.596 38.7085 18.3426C39.0968 18.063 39.4144 17.696 39.6615 17.2504C39.8821 16.8048 39.9968 16.2718 39.9968 15.6776C40.0312 15.1615 39.9297 14.6455 39.7024 14.1799C39.475 13.7143 39.1295 13.315 38.6997 13.0213C38.2867 12.7665 37.8099 12.6314 37.3232 12.6314C36.8366 12.6314 36.3598 12.7665 35.9468 13.0213C35.5585 13.3009 35.2409 13.6679 34.9938 14.1135C34.7605 14.605 34.6457 15.1434 34.6585 15.6863C34.6241 16.2024 34.7256 16.7185 34.9529 17.1841C35.1803 17.6497 35.5258 18.0489 35.9556 18.3426C36.3703 18.596 36.8203 18.7358 37.3232 18.7358ZM47.1615 7.56886C47.1615 7.87468 47.1085 8.15429 46.9674 8.38148C46.8262 8.59992 46.6321 8.80089 46.3762 8.9407C46.1203 9.08051 45.8468 9.13293 45.5644 9.13293C45.2821 9.13293 44.9997 9.08051 44.7438 8.9407C44.5018 8.80728 44.2983 8.61477 44.1527 8.38148C44.016 8.13256 43.949 7.85202 43.9585 7.56886C43.9585 7.25429 44.0203 6.97468 44.1527 6.75623C44.2938 6.4941 44.4968 6.33682 44.7438 6.19701C44.9997 6.0572 45.2732 5.99604 45.5644 5.99604C45.8453 5.98963 46.123 6.0555 46.3705 6.18722C46.6179 6.31893 46.8266 6.51199 46.9762 6.7475C47.1046 7.00225 47.1682 7.28421 47.1615 7.56886ZM44.1615 20.9378V10.3999H46.9674V20.9553H44.1527L44.1615 20.9378ZM54.4674 13.1611V13.196C54.335 13.1349 54.1585 13.1087 54.0262 13.0824C53.8497 13.0475 53.7085 13.0475 53.5409 13.0475C52.7556 13.0475 52.1644 13.2747 51.7762 13.7465C51.3527 14.2271 51.1585 14.8999 51.1585 15.765V20.9465H48.3438V10.3912H50.9291L51.0174 11.9902C51.2997 11.431 51.635 11.0116 52.1115 10.697C52.5854 10.3914 53.1434 10.2387 53.7085 10.2601C53.9115 10.2601 54.1056 10.2776 54.2732 10.3125C54.3615 10.3388 54.4144 10.3388 54.4674 10.365V13.1611ZM55.5968 20.9378V6.06594H58.4027V11.7456C58.7997 11.2388 59.2497 10.8456 59.8144 10.5397C60.7084 10.1057 61.724 9.98253 62.6973 10.1902C63.6707 10.3979 64.545 10.9243 65.1791 11.6844C66.1306 12.7702 66.6346 14.1708 66.5909 15.6077C66.6054 17.0728 66.0853 18.4939 65.1262 19.6096C64.6825 20.1246 64.1303 20.537 63.5083 20.8178C62.8863 21.0986 62.2097 21.241 61.5262 21.2349C60.883 21.2523 60.2459 21.1075 59.6748 20.814C59.1037 20.5205 58.6174 20.088 58.2615 19.5572L58.1732 20.929L55.5968 20.9553V20.9378ZM61.0233 18.7358C61.5262 18.7358 61.9762 18.596 62.3997 18.3426C62.788 18.063 63.1056 17.696 63.3527 17.2504C63.5821 16.8048 63.688 16.2718 63.688 15.6776C63.688 15.0922 63.5821 14.5591 63.3527 14.1135C63.1209 13.6838 62.7954 13.3107 62.3997 13.0213C61.9867 12.7665 61.5099 12.6314 61.0233 12.6314C60.5366 12.6314 60.0598 12.7665 59.6468 13.0213C59.2497 13.3009 58.9409 13.6679 58.685 14.1135C58.4517 14.605 58.3369 15.1434 58.3497 15.6863C58.3153 16.2024 58.4168 16.7185 58.6441 17.1841C58.8715 17.6497 59.2169 18.0489 59.6468 18.3426C60.0615 18.596 60.5115 18.7358 61.0233 18.7358ZM67.6497 20.9465V10.3912H70.235L70.3232 11.763C70.6481 11.2372 71.109 10.8068 71.6581 10.5165C72.2073 10.2261 72.8248 10.0863 73.4468 10.1116C74.158 10.0994 74.8571 10.2952 75.4566 10.6744C76.0561 11.0536 76.5294 11.5994 76.8174 12.2436C77.1262 12.9077 77.2938 13.729 77.2938 14.6465V20.9727H74.4791V15.0135C74.4791 14.2795 74.3115 13.7028 73.9762 13.2747C73.6409 12.8553 73.1821 12.6281 72.5997 12.6281C72.1762 12.6281 71.8056 12.7155 71.4791 12.9077C71.1703 13.1087 70.9144 13.3621 70.7203 13.7203C70.524 14.0824 70.4267 14.4891 70.438 14.8999V20.9465H67.6497ZM78.6968 20.9465V6.0572H81.5115V11.7368C81.8927 11.2272 82.3887 10.8126 82.96 10.5259C83.5313 10.2393 84.1622 10.0884 84.8027 10.0854C85.4675 10.0757 86.1261 10.2145 86.7294 10.4913C87.3328 10.7681 87.8655 11.1759 88.2879 11.6844C89.2326 12.7701 89.733 14.1664 89.6909 15.599C89.7062 17.0642 89.186 18.4856 88.2262 19.6009C87.7825 20.1159 87.2303 20.5283 86.6083 20.8091C85.9863 21.0899 85.3097 21.2323 84.6262 21.2261C83.983 21.2436 83.3459 21.0987 82.7748 20.8053C82.2037 20.5118 81.7174 20.0793 81.3615 19.5485L81.2821 20.9203L78.6968 20.9465ZM84.1497 18.7358C84.6615 18.7358 85.1115 18.596 85.5262 18.3426C85.9232 18.063 86.2321 17.696 86.488 17.2504C86.7085 16.8048 86.8232 16.2718 86.8232 15.6776C86.8576 15.1615 86.7562 14.6455 86.5289 14.1799C86.3015 13.7143 85.956 13.315 85.5262 13.0213C85.1132 12.7665 84.6363 12.6314 84.1497 12.6314C83.6631 12.6314 83.1862 12.7665 82.7732 13.0213C82.385 13.3009 82.0674 13.6679 81.8203 14.1135C81.574 14.6006 81.4585 15.1422 81.485 15.6863C81.4506 16.2024 81.5521 16.7185 81.7794 17.1841C82.0068 17.6497 82.3522 18.0489 82.7821 18.3426C83.1968 18.596 83.6203 18.7358 84.1497 18.7358Z" fill="#FF385C"/>
</g>
<defs>
<clipPath id="clip0_25_2210">
<rect width="90" height="27.9612" fill="white" transform="translate(0 0.177307)"/>
</clipPath>
</defs>
</svg>
