<svg width="90" height="29" viewBox="0 0 90 29" fill="none" xmlns="http://www.w3.org/2000/svg">
<g clip-path="url(#clip0_25_2219)">
<path fill-rule="evenodd" clip-rule="evenodd" d="M55.8341 22.0438C50.604 26.0181 43.0234 28.1385 36.4966 28.1385C27.345 28.1385 19.1062 24.6489 12.8732 18.845C12.3835 18.3886 12.8223 17.7666 13.4099 18.1221C20.1365 22.1569 28.4537 24.5843 37.0451 24.5843C42.8392 24.5843 49.2132 23.3484 55.074 20.7837C55.9594 20.3959 56.6999 21.3814 55.8341 22.0438Z" fill="#FF9900"/>
<path fill-rule="evenodd" clip-rule="evenodd" d="M58.0089 19.4791C57.3429 18.5987 53.5899 19.0631 51.9053 19.2691C51.3921 19.3337 51.3137 18.8733 51.776 18.5421C54.7651 16.3732 59.67 16.9993 60.242 17.7263C60.814 18.4573 60.0931 23.5261 57.2842 25.9454C56.8532 26.317 56.4419 26.1191 56.6339 25.6263C57.2646 24.0027 58.6789 20.3637 58.0089 19.4791Z" fill="#FF9900"/>
<path fill-rule="evenodd" clip-rule="evenodd" d="M52.0225 3.23072V1.12243C52.0225 0.803355 52.2576 0.589294 52.5396 0.589294H61.6952C61.989 0.589294 62.2241 0.807394 62.2241 1.12243V2.9278C62.2201 3.23072 61.9733 3.62653 61.5345 4.25255L56.7903 11.2358C58.5532 11.1913 60.4141 11.462 62.0125 12.3909C62.3729 12.6009 62.4709 12.9079 62.4983 13.2108V15.4604C62.4983 15.7674 62.1692 16.1269 61.8245 15.9411C59.0077 14.4184 55.2663 14.2528 52.1518 15.9572C51.8345 16.1349 51.5015 15.7795 51.5015 15.4726V13.336C51.5015 12.9927 51.5054 12.407 51.8384 11.886L57.3348 3.75981H52.5514C52.2576 3.75981 52.0225 3.54575 52.0225 3.23072Z" fill="black"/>
<path fill-rule="evenodd" clip-rule="evenodd" d="M18.6243 16.3853H15.8389C15.5725 16.3651 15.3609 16.1591 15.3413 15.8966V1.15875C15.3413 0.863915 15.5803 0.629659 15.878 0.629659H18.4754C18.7457 0.641767 18.9612 0.855835 18.9808 1.1224V3.04895H19.0317C19.7095 1.18702 20.9827 0.318665 22.6986 0.318665C24.442 0.318665 25.5311 1.18702 26.3146 3.04895C26.9885 1.18702 28.5203 0.318665 30.1618 0.318665C31.3292 0.318665 32.6064 0.815446 33.386 1.93018C34.2674 3.17011 34.0872 4.97145 34.0872 6.55065L34.0833 15.8522C34.0833 16.147 33.8443 16.3853 33.5466 16.3853H30.7651C30.4869 16.3651 30.2636 16.1349 30.2636 15.8522V8.04099C30.2636 7.41901 30.3185 5.86808 30.1853 5.2784C29.9776 4.28888 29.3547 4.0102 28.5477 4.0102C27.8738 4.0102 27.1687 4.47467 26.8827 5.21782C26.5967 5.96097 26.6241 7.20494 26.6241 8.04099V15.8522C26.6241 16.147 26.3851 16.3853 26.0874 16.3853H23.3059C23.0238 16.3651 22.8044 16.1349 22.8044 15.8522L22.8005 8.04099C22.8005 6.39717 23.063 3.97789 21.0846 3.97789C19.0827 3.97789 19.161 6.33659 19.161 8.04099V15.8522C19.161 16.147 18.922 16.3853 18.6243 16.3853" fill="black"/>
<path fill-rule="evenodd" clip-rule="evenodd" d="M70.1061 0.318665C74.2393 0.318665 76.4762 3.97789 76.4762 8.63067C76.4762 13.1259 74.0042 16.6923 70.1061 16.6923C66.0474 16.6923 63.8379 13.033 63.8379 8.47316C63.8379 3.88499 66.0749 0.318665 70.1061 0.318665ZM70.1296 3.32763C68.0768 3.32763 67.9475 6.21138 67.9475 8.00869C67.9475 9.81003 67.9201 13.655 70.1061 13.655C72.2648 13.655 72.3666 10.5532 72.3666 8.66298C72.3666 7.41901 72.3157 5.9327 71.9513 4.75335C71.6379 3.72748 71.015 3.32763 70.1296 3.32763Z" fill="black"/>
<path fill-rule="evenodd" clip-rule="evenodd" d="M81.8357 16.3853H79.062C78.7839 16.3651 78.5606 16.1349 78.5606 15.8522L78.5566 1.11028C78.5801 0.839679 78.8113 0.629659 79.0934 0.629659H81.6751C81.918 0.641767 82.1178 0.811408 82.1726 1.04162V3.29532H82.2236C83.0032 1.27992 84.0962 0.318665 86.0197 0.318665C87.2695 0.318665 88.4879 0.783136 89.2714 2.05538C90.0001 3.23473 90.0001 5.21782 90.0001 6.64354V15.9208C89.9687 16.1793 89.7376 16.3853 89.4634 16.3853H86.6701C86.4154 16.3651 86.2039 16.1713 86.1765 15.9208V7.91579C86.1765 6.30428 86.3567 3.94557 84.4331 3.94557C83.7553 3.94557 83.1324 4.41409 82.8229 5.12493C82.4312 6.0256 82.3803 6.92223 82.3803 7.91579V15.8522C82.3763 16.147 82.1334 16.3853 81.8357 16.3853" fill="black"/>
<path fill-rule="evenodd" clip-rule="evenodd" d="M44.7241 9.34556C44.7241 10.4643 44.7515 11.3973 44.203 12.3909C43.7603 13.1987 43.0552 13.6954 42.2755 13.6954C41.206 13.6954 40.5792 12.8553 40.5792 11.6154C40.5792 9.16785 42.7065 8.72357 44.7241 8.72357V9.34556ZM47.533 16.3449C47.3489 16.5146 47.0825 16.5267 46.8749 16.4136C45.9503 15.622 45.7818 15.2544 45.2765 14.4992C43.7486 16.1066 42.6634 16.5873 40.685 16.5873C38.3383 16.5873 36.5166 15.0969 36.5166 12.1122C36.5166 9.78176 37.7389 8.19448 39.4862 7.41902C40.9984 6.7324 43.11 6.61124 44.7241 6.42141V6.04984C44.7241 5.36726 44.775 4.55949 44.3832 3.96982C44.0463 3.44072 43.396 3.22262 42.8201 3.22262C41.7584 3.22262 40.8143 3.78402 40.5831 4.94722C40.5361 5.20571 40.352 5.46016 40.0973 5.47228L37.3981 5.1734C37.1708 5.12089 36.9162 4.93106 36.9828 4.57161C37.6018 1.19511 40.5635 0.177307 43.2119 0.177307C44.5674 0.177307 46.3381 0.548885 47.4077 1.60707C48.7632 2.91163 48.6339 4.65238 48.6339 6.54662V11.0217C48.6339 12.3666 49.1745 12.9563 49.6838 13.6833C49.8601 13.9418 49.8993 14.2528 49.672 14.4467C49.104 14.9354 48.0932 15.8441 47.5369 16.353L47.533 16.3449" fill="black"/>
<path fill-rule="evenodd" clip-rule="evenodd" d="M8.20746 9.3458C8.20746 10.4646 8.23488 11.3975 7.68642 12.3911C7.24372 13.1989 6.54246 13.6957 5.75893 13.6957C4.68942 13.6957 4.06651 12.8556 4.06651 11.6156C4.06651 9.16809 6.19379 8.72381 8.20746 8.72381V9.3458ZM11.0164 16.3452C10.8323 16.5148 10.5659 16.5269 10.3582 16.4138C9.43368 15.6222 9.26914 15.2547 8.75985 14.4994C7.23197 16.1069 6.1507 16.5875 4.16837 16.5875C1.82562 16.5875 0 15.0972 0 12.1124C0 9.782 1.22622 8.19472 2.96957 7.41926C4.48178 6.73265 6.59339 6.61148 8.20746 6.42166V6.05008C8.20746 5.36751 8.25839 4.55973 7.87054 3.97006C7.52971 3.44096 6.87938 3.22286 6.3074 3.22286C5.24572 3.22286 4.29765 3.78427 4.06651 4.94746C4.0195 5.20595 3.83537 5.4604 3.58464 5.47252L0.88147 5.17364C0.654246 5.12114 0.403516 4.93131 0.466199 4.57185C1.0891 1.19535 4.04692 0.177551 6.69525 0.177551C8.05075 0.177551 9.82153 0.549129 10.891 1.60731C12.2465 2.91187 12.1173 4.65263 12.1173 6.54686V11.0219C12.1173 12.3669 12.6579 12.9566 13.1672 13.6836C13.3474 13.942 13.3866 14.253 13.1594 14.4469C12.5913 14.9356 11.5806 15.8444 11.0242 16.3533L11.0164 16.3452" fill="black"/>
</g>
<defs>
<clipPath id="clip0_25_2219">
<rect width="90" height="27.9612" fill="white" transform="translate(0 0.177307)"/>
</clipPath>
</defs>
</svg>
