<svg width="90" height="31" viewBox="0 0 90 31" fill="none" xmlns="http://www.w3.org/2000/svg">
<path d="M38.2995 15.5467C38.2995 19.7547 34.9939 22.8555 30.9373 22.8555C26.8807 22.8555 23.5752 19.7547 23.5752 15.5467C23.5752 11.3091 26.8807 8.23798 30.9373 8.23798C34.9939 8.23798 38.2995 11.3091 38.2995 15.5467ZM35.0767 15.5467C35.0767 12.9172 33.1609 11.118 30.9373 11.118C28.7138 11.118 26.798 12.9172 26.798 15.5467C26.798 18.1499 28.7138 19.9755 30.9373 19.9755C33.1609 19.9755 35.0767 18.1466 35.0767 15.5467Z" fill="#EA4335"/>
<path d="M54.1818 15.5467C54.1818 19.7547 50.8763 22.8555 46.8196 22.8555C42.763 22.8555 39.4575 19.7547 39.4575 15.5467C39.4575 11.3124 42.763 8.23798 46.8196 8.23798C50.8763 8.23798 54.1818 11.3091 54.1818 15.5467ZM50.959 15.5467C50.959 12.9172 49.0432 11.118 46.8196 11.118C44.5961 11.118 42.6803 12.9172 42.6803 15.5467C42.6803 18.1499 44.5961 19.9755 46.8196 19.9755C49.0432 19.9755 50.959 18.1466 50.959 15.5467Z" fill="#FBBC05"/>
<path d="M69.4026 8.67953V21.801C69.4026 27.1985 66.2063 29.403 62.4276 29.403C58.8706 29.403 56.7298 27.0338 55.9225 25.0962L58.7284 23.933C59.228 25.1226 60.4523 26.5263 62.4243 26.5263C64.8431 26.5263 66.342 25.0402 66.342 22.2426V21.1914H66.2295C65.5081 22.0778 64.1184 22.8522 62.3648 22.8522C58.6953 22.8522 55.3335 19.669 55.3335 15.5731C55.3335 11.4475 58.6953 8.23798 62.3648 8.23798C64.1151 8.23798 65.5048 9.01235 66.2295 9.87239H66.342V8.68283H69.4026V8.67953ZM66.5703 15.5731C66.5703 12.9995 64.8464 11.118 62.6526 11.118C60.4291 11.118 58.5662 12.9995 58.5662 15.5731C58.5662 18.1203 60.4291 19.9755 62.6526 19.9755C64.8464 19.9755 66.5703 18.1203 66.5703 15.5731Z" fill="#4285F4"/>
<path d="M74.4486 0.988525V22.4073H71.3052V0.988525H74.4486Z" fill="#34A853"/>
<path d="M86.6977 17.9522L89.1992 19.613C88.3918 20.8026 86.4462 22.8522 83.0845 22.8522C78.9154 22.8522 75.8018 19.6426 75.8018 15.5434C75.8018 11.1971 78.9418 8.23468 82.7238 8.23468C86.5323 8.23468 88.3951 11.2531 89.004 12.8842L89.3382 13.7146L79.5275 17.7611C80.2786 19.2274 81.4466 19.9755 83.0845 19.9755C84.7257 19.9755 85.8639 19.1714 86.6977 17.9522ZM78.9981 15.3226L85.5562 12.6107C85.1955 11.6979 84.1102 11.062 82.833 11.062C81.1951 11.062 78.9154 12.502 78.9981 15.3226Z" fill="#EA4335"/>
<path d="M11.6769 13.6454V10.5446H22.1691C22.2717 11.085 22.3247 11.7243 22.3247 12.4163C22.3247 14.7427 21.6861 17.6194 19.628 19.669C17.6261 21.745 15.0684 22.8521 11.6802 22.8521C5.40002 22.8521 0.119141 17.7578 0.119141 11.5035C0.119141 5.24922 5.40002 0.154846 11.6802 0.154846C15.1544 0.154846 17.6294 1.51247 19.489 3.28199L17.2919 5.47C15.9585 4.22441 14.1519 3.25562 11.6769 3.25562C7.09083 3.25562 3.50407 6.93636 3.50407 11.5035C3.50407 16.0706 7.09083 19.7514 11.6769 19.7514C14.6515 19.7514 16.3456 18.5618 17.4309 17.481C18.3111 16.6045 18.8901 15.3523 19.1184 13.6421L11.6769 13.6454Z" fill="#4285F4"/>
</svg>
