<svg width="90" height="27" viewBox="0 0 90 27" fill="none" xmlns="http://www.w3.org/2000/svg">
<g clip-path="url(#clip0_25_2240)">
<path d="M9.74652 4.55725V11.8106H3.13764V4.55725H0V21.8716H3.13764V14.8538H9.74652V21.8716H12.8842V4.55725H9.74652Z" fill="#33475B"/>
<path d="M22.9255 16.2747C22.9255 16.9686 22.652 17.6341 22.1652 18.1248C21.6784 18.6154 21.0182 18.8911 20.3298 18.8911C19.6413 18.8911 18.9811 18.6154 18.4943 18.1248C18.0075 17.6341 17.734 16.9686 17.734 16.2747V8.8587H14.7578V16.2747C14.7578 17.7628 15.3443 19.1899 16.3882 20.2422C17.4322 21.2944 18.848 21.8855 20.3244 21.8855C21.8007 21.8855 23.2166 21.2944 24.2606 20.2422C25.3045 19.1899 25.891 17.7628 25.891 16.2747V8.8587H22.9255V16.2747Z" fill="#33475B"/>
<path d="M44.9771 9.62263C44.9771 8.10255 45.9748 7.62065 47.0679 7.62065C47.9487 7.62065 49.1125 8.29624 49.8734 9.11594L51.8228 6.80096C50.8496 5.47457 48.8757 4.55725 47.26 4.55725C44.0317 4.55725 41.6965 6.46316 41.6965 9.62263C41.6965 15.4845 48.805 13.625 48.805 16.9054C48.805 17.9172 47.8304 18.8113 46.7143 18.8113C44.9541 18.8113 44.3837 17.9436 43.5751 17.0262L41.4121 19.2932C42.7957 21.0054 44.5021 21.8747 46.5467 21.8747C49.6136 21.8747 52.081 19.9455 52.081 16.9302C52.081 10.4222 44.9725 12.4443 44.9725 9.62263" fill="#33475B"/>
<path d="M88.9528 19.1057C87.1941 19.1057 86.6945 18.3387 86.6945 17.1642V11.9655H89.4278V9.33135H86.6945V5.85577L83.6768 7.2209V17.8103C83.6768 20.5189 85.5307 21.884 88.0734 21.884C88.4722 21.8913 88.8708 21.8592 89.2633 21.7879L89.9997 19.0561C89.6676 19.0794 89.2864 19.1026 88.9528 19.1026" fill="#33475B"/>
<path d="M34.2546 8.94549C32.7803 8.94549 31.7518 9.37626 30.7572 10.3602V4.66107H27.7764V15.2241C27.7764 19.1785 30.6127 21.8871 33.7995 21.8871C37.3353 21.8871 40.4453 19.1305 40.4453 15.4178C40.4453 11.7517 37.5828 8.94704 34.2546 8.94704V8.94549ZM34.2361 18.864C33.5672 18.864 32.9133 18.664 32.3571 18.2895C31.801 17.9149 31.3675 17.3825 31.1115 16.7596C30.8555 16.1367 30.7885 15.4512 30.919 14.79C31.0495 14.1287 31.3716 13.5213 31.8446 13.0445C32.3176 12.5678 32.9203 12.2431 33.5763 12.1116C34.2324 11.9801 34.9124 12.0476 35.5304 12.3056C36.1484 12.5636 36.6766 13.0005 37.0482 13.5611C37.4198 14.1217 37.6182 14.7808 37.6182 15.455C37.6182 16.3591 37.2619 17.2262 36.6276 17.8655C35.9933 18.5048 35.1331 18.864 34.2361 18.864Z" fill="#33475B"/>
<path d="M66.6201 15.2598C66.6201 11.541 63.5163 8.79059 59.9743 8.79059C56.7875 8.79059 53.9512 11.4991 53.9512 15.4535V26.0228H56.932V20.3159C57.9251 21.2983 58.9551 21.7306 60.4278 21.7306C63.7561 21.7306 66.6186 18.9275 66.6186 15.2598H66.6201ZM63.7976 15.2226C63.7976 15.8969 63.5992 16.556 63.2276 17.1165C62.856 17.6771 62.3278 18.1141 61.7098 18.3721C61.0918 18.6301 60.4118 18.6976 59.7557 18.5661C59.0997 18.4345 58.497 18.1099 58.0241 17.6331C57.5511 17.1564 57.2289 16.549 57.0985 15.8877C56.968 15.2264 57.0349 14.541 57.2909 13.9181C57.5469 13.2952 57.9804 12.7628 58.5366 12.3882C59.0927 12.0136 59.7466 11.8137 60.4155 11.8137C61.3125 11.8137 62.1728 12.1729 62.807 12.8122C63.4413 13.4515 63.7976 14.3185 63.7976 15.2226Z" fill="#33475B"/>
<path d="M76.2507 8.64491V5.62644C76.6464 5.44006 76.9815 5.1442 77.2169 4.77332C77.4523 4.40244 77.5784 3.97178 77.5804 3.53149V3.46176C77.5804 2.84533 77.3375 2.25414 76.905 1.81825C76.4726 1.38236 75.886 1.13748 75.2745 1.13748H75.2053C74.5937 1.13748 74.0072 1.38236 73.5747 1.81825C73.1423 2.25414 72.8993 2.84533 72.8993 3.46176V3.53149C72.9014 3.97178 73.0274 4.40244 73.2628 4.77332C73.4983 5.1442 73.8333 5.44006 74.2291 5.62644V8.64491C73.0917 8.8203 72.0204 9.29552 71.1237 10.0224L62.9115 3.57488C62.9696 3.36226 63.0006 3.14305 63.0037 2.92253C63.0046 2.40454 62.8531 1.89791 62.5683 1.46672C62.2835 1.03554 61.8783 0.699171 61.4038 0.500165C60.9293 0.301159 60.407 0.248456 59.9028 0.348722C59.3986 0.448989 58.9352 0.697719 58.5713 1.06345C58.2074 1.42919 57.9592 1.89549 57.8583 2.40339C57.7573 2.91129 57.808 3.43796 58.0041 3.91679C58.2001 4.39562 58.5326 4.80509 58.9596 5.09341C59.3865 5.38173 59.8887 5.53596 60.4026 5.53657C60.852 5.53455 61.293 5.4138 61.6816 5.18638L69.7694 11.5286C69.0427 12.6349 68.6635 13.9362 68.6813 15.2629C68.6991 16.5897 69.1131 17.8802 69.8693 18.9663L67.4096 21.4455C67.2107 21.3815 67.0035 21.3475 66.7947 21.3448C66.3728 21.3451 65.9605 21.4714 65.6098 21.7079C65.2591 21.9443 64.9859 22.2802 64.8246 22.6732C64.6633 23.0661 64.6212 23.4984 64.7035 23.9155C64.7859 24.3325 64.9891 24.7156 65.2874 25.0163C65.5857 25.317 65.9658 25.5218 66.3796 25.6048C66.7933 25.6879 67.2223 25.6454 67.6121 25.4828C68.0019 25.3202 68.3352 25.0448 68.5698 24.6914C68.8043 24.3379 68.9297 23.9223 68.93 23.4971C68.9274 23.2866 68.8937 23.0777 68.8301 22.8772L71.2636 20.4244C72.0572 21.0399 72.9799 21.4641 73.9612 21.6647C74.9426 21.8652 75.9564 21.8367 76.9251 21.5814C77.8938 21.3261 78.7917 20.8506 79.55 20.1915C80.3082 19.5324 80.9068 18.7071 81.2998 17.7789C81.6928 16.8506 81.8698 15.844 81.8172 14.8362C81.7647 13.8283 81.484 12.846 80.9966 11.9643C80.5093 11.0827 79.8282 10.3252 79.0056 9.74983C78.183 9.17447 77.2406 8.79651 76.2507 8.64491ZM75.2422 18.5711C74.5765 18.5705 73.926 18.371 73.3727 17.9978C72.8195 17.6247 72.3885 17.0945 72.1341 16.4745C71.8797 15.8545 71.8134 15.1723 71.9435 14.5143C72.0736 13.8563 72.3944 13.2519 72.8652 12.7776C73.336 12.3033 73.9357 11.9803 74.5886 11.8494C75.2415 11.7185 75.9182 11.7857 76.5333 12.0424C77.1483 12.2991 77.674 12.7338 78.044 13.2916C78.414 13.8494 78.6117 14.5052 78.612 15.1761C78.612 16.0761 78.2573 16.9393 77.6259 17.5757C76.9945 18.2121 76.1382 18.5696 75.2453 18.5696" fill="#FF7A59"/>
</g>
<defs>
<clipPath id="clip0_25_2240">
<rect width="90" height="25.7143" fill="white" transform="translate(0 0.300781)"/>
</clipPath>
</defs>
</svg>
