<svg width="90" height="20" viewBox="0 0 90 20" fill="none" xmlns="http://www.w3.org/2000/svg">
<g clip-path="url(#clip0_25_2228)">
<path d="M31.7683 11.615L31.2319 13.1316H31.1872C31.0978 12.7897 30.9339 12.2693 30.6657 11.6448L27.7899 4.43358H24.9736V15.9269H26.8362V8.83464C26.8362 8.38859 26.8362 7.88306 26.8213 7.25858C26.8064 6.94635 26.7766 6.70845 26.7617 6.53003H26.8064C26.8958 6.97608 27.0001 7.30319 27.0746 7.51135L30.5316 15.8972H31.8428L35.27 7.43701C35.3445 7.24372 35.419 6.85714 35.4935 6.53003H35.5382C35.4935 7.37753 35.4637 8.13583 35.4488 8.59675V15.8823H37.4306V4.40384H34.7187L31.7683 11.615ZM39.3081 7.64516H41.2452V15.8823H39.3081V7.64516ZM40.2915 4.16594C39.9637 4.16594 39.6955 4.28489 39.472 4.49305C39.2485 4.70121 39.1293 4.96884 39.1293 5.29595C39.1293 5.60818 39.2485 5.87582 39.472 6.08398C39.6955 6.29213 39.9637 6.39621 40.2915 6.39621C40.6193 6.39621 40.9024 6.27727 41.111 6.08398C41.3346 5.87582 41.4538 5.60818 41.4538 5.29595C41.4538 4.98371 41.3346 4.71608 41.111 4.49305C40.9173 4.28489 40.6342 4.16594 40.2915 4.16594ZM48.1144 7.57082C47.7567 7.49648 47.3842 7.45187 47.0266 7.45187C46.1475 7.45187 45.3428 7.64517 44.6723 8.03175C44.0018 8.41833 43.4654 8.95359 43.1226 9.62267C42.765 10.3066 42.5862 11.0947 42.5862 12.0016C42.5862 12.7897 42.765 13.4885 43.1077 14.1278C43.4505 14.7523 43.9273 15.2578 44.568 15.5998C45.1789 15.9418 45.8942 16.1202 46.6988 16.1202C47.6226 16.1202 48.4124 15.9269 49.0382 15.5701L49.0531 15.5552V13.771L48.9786 13.8305C48.6955 14.0386 48.3677 14.217 48.0399 14.3211C47.6971 14.4401 47.3842 14.4995 47.116 14.4995C46.3412 14.4995 45.7303 14.2765 45.2981 13.7858C44.8511 13.3101 44.6276 12.6558 44.6276 11.8381C44.6276 10.9906 44.8511 10.3215 45.313 9.83083C45.775 9.34017 46.3859 9.08741 47.1309 9.08741C47.7567 9.08741 48.3975 9.29557 48.9786 9.71188L49.0531 9.77136V7.88306L49.0382 7.86819C48.7849 7.76411 48.5018 7.64516 48.1144 7.57082ZM54.5067 7.51135C54.0299 7.51135 53.5829 7.66003 53.1955 7.97227C52.8677 8.2399 52.6442 8.62648 52.4505 9.08741H52.4356V7.64516H50.4985V15.8823H52.4356V11.6745C52.4356 10.9608 52.5846 10.3661 52.9124 9.93491C53.2402 9.48886 53.6574 9.26583 54.164 9.26583C54.3428 9.26583 54.5216 9.31043 54.7452 9.34017C54.9538 9.39965 55.1028 9.45912 55.2071 9.53346L55.2816 9.59294V7.66003L55.2369 7.64516C55.1028 7.55595 54.8346 7.51135 54.5067 7.51135ZM59.7816 7.46674C58.4256 7.46674 57.3379 7.86819 56.5779 8.65622C55.8031 9.44425 55.4306 10.5296 55.4306 11.8975C55.4306 13.1762 55.818 14.217 56.563 14.9753C57.3081 15.7187 58.3213 16.1053 59.5879 16.1053C60.914 16.1053 61.972 15.7039 62.7319 14.901C63.5067 14.0981 63.8793 13.0276 63.8793 11.7043C63.8793 10.3958 63.5216 9.35504 62.7915 8.59675C62.0912 7.83846 61.063 7.46674 59.7816 7.46674ZM61.3312 13.8007C60.9736 14.2616 60.4074 14.4847 59.7071 14.4847C59.0067 14.4847 58.4405 14.2616 58.0382 13.771C57.6359 13.3101 57.4422 12.641 57.4422 11.7935C57.4422 10.9162 57.6508 10.2471 58.0382 9.77136C58.4405 9.29557 58.9918 9.05767 59.6922 9.05767C60.3776 9.05767 60.914 9.2807 61.3014 9.74162C61.6889 10.2025 61.8975 10.8716 61.8975 11.7489C61.8677 12.641 61.7038 13.3398 61.3312 13.8007ZM68.2005 11.0649C67.5895 10.8122 67.2021 10.6189 67.0233 10.4553C66.8743 10.3066 66.7998 10.0985 66.7998 9.83083C66.7998 9.6078 66.8892 9.38478 67.1127 9.23609C67.3362 9.08741 67.5895 9.01306 67.962 9.01306C68.2899 9.01306 68.6326 9.07254 68.9604 9.16175C69.2882 9.25096 69.5862 9.38478 69.8246 9.5632L69.8991 9.62267V7.80872L69.8544 7.79385C69.6309 7.70464 69.3329 7.61543 68.9753 7.54109C68.6177 7.48161 68.2899 7.45187 68.0216 7.45187C67.0978 7.45187 66.3379 7.6749 65.7418 8.16556C65.1458 8.62648 64.8627 9.25096 64.8627 9.97952C64.8627 10.3661 64.9223 10.7081 65.0564 10.9906C65.1905 11.2731 65.3842 11.5407 65.6524 11.7637C65.9207 11.9719 66.3081 12.2098 66.8445 12.4328C67.2915 12.6261 67.6342 12.7748 67.8428 12.8937C68.0514 13.0127 68.1856 13.1465 68.2899 13.2506C68.3644 13.3695 68.4091 13.5182 68.4091 13.7115C68.4091 14.2616 67.9918 14.5293 67.1425 14.5293C66.8147 14.5293 66.472 14.4698 66.0697 14.336C65.6673 14.2022 65.2948 14.0089 64.9819 13.7858L64.9074 13.7264V15.6147L64.9521 15.6295C65.2352 15.7634 65.5779 15.8526 65.9952 15.9566C66.4124 16.031 66.7849 16.0905 67.1127 16.0905C68.111 16.0905 68.9306 15.8674 69.5117 15.3768C70.1077 14.901 70.4207 14.2914 70.4207 13.5033C70.4207 12.9532 70.2716 12.4626 69.9438 12.0908C69.5117 11.734 68.9753 11.3623 68.2005 11.0649ZM75.5316 7.46674C74.1756 7.46674 73.0879 7.86819 72.3279 8.65622C71.568 9.44425 71.1806 10.5296 71.1806 11.8975C71.1806 13.1762 71.568 14.217 72.313 14.9753C73.0581 15.7187 74.0713 16.1053 75.3379 16.1053C76.664 16.1053 77.722 15.7039 78.4819 14.901C79.2567 14.0981 79.6293 13.0276 79.6293 11.7043C79.6293 10.3958 79.2716 9.35504 78.5415 8.59675C77.8412 7.83846 76.813 7.46674 75.5316 7.46674ZM77.0663 13.8007C76.7087 14.2616 76.1425 14.4847 75.4422 14.4847C74.7269 14.4847 74.1756 14.2616 73.7733 13.771C73.371 13.3101 73.1773 12.641 73.1773 11.7935C73.1773 10.9162 73.3859 10.2471 73.7733 9.77136C74.1756 9.29557 74.7269 9.05767 75.4273 9.05767C76.0978 9.05767 76.6491 9.2807 77.0365 9.74162C77.424 10.2025 77.6326 10.8716 77.6326 11.7489C77.6326 12.641 77.4389 13.3398 77.0663 13.8007ZM89.9852 9.23609V7.64516H88.0332V5.20674L87.9736 5.2216L86.1259 5.77174L86.0812 5.78661V7.64516H83.1607V6.60437C83.1607 6.12858 83.2799 5.75687 83.4885 5.51897C83.6971 5.28108 84.0101 5.16213 84.3975 5.16213C84.6657 5.16213 84.9488 5.2216 85.2617 5.35542L85.3362 5.40003V3.71989L85.2915 3.70502C85.0233 3.61581 84.6657 3.55634 84.2038 3.55634C83.6226 3.55634 83.116 3.69015 82.6541 3.91318C82.1922 4.16594 81.8495 4.50792 81.5961 4.96884C81.3428 5.41489 81.2087 5.92042 81.2087 6.50029V7.64516H79.8528V9.22122H81.2087V15.8823H83.1607V9.23609H86.0812V13.4736C86.0812 15.2132 86.9008 16.0905 88.5399 16.0905C88.8081 16.0905 89.0912 16.0459 89.3594 16.0012C89.6425 15.9418 89.8511 15.8674 89.9703 15.808L89.9852 15.7931V14.2022L89.9107 14.2616C89.7915 14.336 89.6872 14.3955 89.5084 14.4401C89.3594 14.4847 89.2253 14.4995 89.121 14.4995C88.7336 14.4995 88.4654 14.4103 88.2716 14.1873C88.0928 13.9791 88.0034 13.6372 88.0034 13.1316V9.23609H89.9852Z" fill="#737373"/>
<path d="M0 0.567749H9.13411V9.68212H0V0.567749Z" fill="#F25022"/>
<path d="M10.0879 0.567749H19.222V9.68212H10.0879V0.567749Z" fill="#7FBA00"/>
<path d="M0 10.6337H9.13411V19.7481H0V10.6337Z" fill="#00A4EF"/>
<path d="M10.0879 10.6337H19.222V19.7481H10.0879V10.6337Z" fill="#FFB900"/>
</g>
<defs>
<clipPath id="clip0_25_2228">
<rect width="90" height="19.1803" fill="white" transform="translate(0 0.567749)"/>
</clipPath>
</defs>
</svg>
