<svg width="42" height="43" viewBox="0 0 42 43" fill="none" xmlns="http://www.w3.org/2000/svg">
<path opacity="0.2" d="M16.7998 32.8658L9.44979 25.5158L6.21776 34.4244C6.1284 34.6581 6.10863 34.9128 6.16084 35.1575C6.21304 35.4023 6.33498 35.6267 6.51194 35.8036C6.6889 35.9806 6.9133 36.1025 7.15805 36.1547C7.40281 36.2069 7.65744 36.1872 7.8912 36.0978L16.7998 32.8658Z" fill="#F8D57E"/>
<path opacity="0.2" d="M32.6207 25.1498L32.6209 25.15C32.7706 25.2984 32.8802 25.4821 32.9398 25.6842C32.9994 25.8863 33.007 26.1001 32.9617 26.3059C32.9165 26.5117 32.82 26.7027 32.6812 26.8612C32.5424 27.0197 32.3658 27.1406 32.1678 27.2125L25.4787 29.6435L12.6724 16.8372L15.1034 10.1481C15.1753 9.95006 15.2962 9.77345 15.4547 9.63464C15.6132 9.49584 15.8042 9.39935 16.01 9.35414C16.2157 9.30894 16.4296 9.31647 16.6317 9.37606C16.8338 9.43564 17.0175 9.54534 17.1659 9.69495L17.1661 9.69514L32.6207 25.1498Z" fill="#F8D57E" stroke="#F8D57E" stroke-width="0.125"/>
<path d="M6.21776 34.4244L15.0443 10.1267C15.1199 9.91881 15.2468 9.73337 15.4132 9.58763C15.5796 9.44188 15.7802 9.34057 15.9963 9.2931C16.2123 9.24563 16.4369 9.25355 16.6491 9.31611C16.8613 9.37867 17.0542 9.49385 17.2099 9.65095L32.6646 25.1056C32.8217 25.2614 32.9369 25.4543 32.9995 25.6665C33.062 25.8787 33.0699 26.1033 33.0225 26.3193C32.975 26.5354 32.8737 26.736 32.728 26.9024C32.5822 27.0688 32.3968 27.1957 32.1888 27.2713L7.8912 36.0978C7.65744 36.1872 7.40281 36.2069 7.15805 36.1547C6.9133 36.1025 6.6889 35.9806 6.51194 35.8036C6.33498 35.6267 6.21304 35.4023 6.16084 35.1575C6.10863 34.9128 6.1284 34.6581 6.21776 34.4244V34.4244Z" stroke="#F8D57E" stroke-width="2" stroke-linecap="round" stroke-linejoin="round"/>
<path d="M27.5625 12.1283C27.5625 12.1283 27.5625 8.1908 31.5 8.1908C35.4375 8.1908 35.4375 4.2533 35.4375 4.2533" stroke="#F8D57E" stroke-width="2" stroke-linecap="round" stroke-linejoin="round"/>
<path d="M16.8002 32.8658L9.4502 25.5158" stroke="#F8D57E" stroke-width="2" stroke-linecap="round" stroke-linejoin="round"/>
<path d="M23.625 2.9408V6.8783" stroke="#F8D57E" stroke-width="2" stroke-linecap="round" stroke-linejoin="round"/>
<path d="M35.4375 18.6908L38.0625 21.3158" stroke="#F8D57E" stroke-width="2" stroke-linecap="round" stroke-linejoin="round"/>
<path d="M35.4375 13.4408L39.375 12.1283" stroke="#F8D57E" stroke-width="2" stroke-linecap="round" stroke-linejoin="round"/>
<path d="M12.6001 16.8533L25.4626 29.7158" stroke="#F8D57E" stroke-width="2" stroke-linecap="round" stroke-linejoin="round"/>
</svg>
