<svg width="42" height="43" viewBox="0 0 42 43" fill="none" xmlns="http://www.w3.org/2000/svg">
<path opacity="0.2" d="M11.435 36.1306C11.3129 36.2547 11.1673 36.3531 11.0068 36.4204C10.8462 36.4876 10.6739 36.5222 10.4999 36.5222C10.3258 36.5222 10.1535 36.4876 9.99295 36.4204C9.8324 36.3531 9.68683 36.2547 9.5647 36.1306L6.18501 32.751C6.061 32.6288 5.96252 32.4833 5.8953 32.3227C5.82808 32.1622 5.79346 31.9898 5.79346 31.8158C5.79346 31.6417 5.82808 31.4694 5.8953 31.3089C5.96252 31.1483 6.061 31.0028 6.18501 30.8806L23.6249 13.4408L28.8749 18.6908L11.435 36.1306Z" fill="#FF6250"/>
<path d="M35.4375 21.3158V29.1908" stroke="#FF6250" stroke-width="2.375" stroke-linecap="round" stroke-linejoin="round"/>
<path d="M31.5 25.2533H39.375" stroke="#FF6250" stroke-width="2.375" stroke-linecap="round" stroke-linejoin="round"/>
<path d="M13.7812 6.8783V13.4408" stroke="#FF6250" stroke-width="2.375" stroke-linecap="round" stroke-linejoin="round"/>
<path d="M10.5 10.1595H17.0625" stroke="#FF6250" stroke-width="2.375" stroke-linecap="round" stroke-linejoin="round"/>
<path d="M27.5625 30.5033V35.7533" stroke="#FF6250" stroke-width="2.375" stroke-linecap="round" stroke-linejoin="round"/>
<path d="M24.9375 33.1283H30.1875" stroke="#FF6250" stroke-width="2.375" stroke-linecap="round" stroke-linejoin="round"/>
<path d="M30.5857 6.48975L6.18882 30.8866C5.67626 31.3992 5.67626 32.2302 6.18882 32.7427L9.5821 36.136C10.0947 36.6486 10.9257 36.6486 11.4383 36.136L35.8351 11.7392C36.3477 11.2266 36.3477 10.3956 35.8351 9.88303L32.4418 6.48975C31.9293 5.97719 31.0982 5.97719 30.5857 6.48975Z" stroke="#FF6250" stroke-width="2.375" stroke-linecap="round" stroke-linejoin="round"/>
<path d="M23.625 13.4408L28.875 18.6908" stroke="#FF6250" stroke-width="2.375" stroke-linecap="round" stroke-linejoin="round"/>
</svg>
